<svg width="120" height="120" viewBox="0 0 120 120" fill="none" xmlns="http://www.w3.org/2000/svg">
  <path d="M118.5 60C118.5 92.0325 92.0325 118.5 60 118.5C27.9675 118.5 1.5 92.0325 1.5 60C1.5 27.9675 27.9675 1.5 60 1.5C92.0325 1.5 118.5 27.9675 118.5 60Z" stroke="white" stroke-width="3" stroke-opacity="0.2"/>
  <path d="M101.925 50.8369C103.455 50.2994 104.212 48.642 103.675 47.1123C103.137 45.5826 101.48 44.8249 99.9497 45.3624L83.3247 51.03L44.025 33.8997L36.75 38.4747L59.625 59.9997L43 65.6673L29.175 58.9797L24.6 62.0247L39.075 74.9997L86.7 56.5047L101.925 50.8369Z" fill="white"/>
</svg>