<svg width="240" height="120" viewBox="0 0 240 120" fill="none" xmlns="http://www.w3.org/2000/svg">
  <!-- Cloud 1 -->
  <path d="M50 30C50 23.3726 55.3726 18 62 18H74C80.6274 18 86 23.3726 86 30C86 36.6274 80.6274 42 74 42H62C55.3726 42 50 36.6274 50 30Z" fill="white" fill-opacity="0.5"/>
  <path d="M38 36C38 29.3726 43.3726 24 50 24H62C68.6274 24 74 29.3726 74 36C74 42.6274 68.6274 48 62 48H50C43.3726 48 38 42.6274 38 36Z" fill="white" fill-opacity="0.5"/>
  <path d="M26 30C26 23.3726 31.3726 18 38 18H50C56.6274 18 62 23.3726 62 30C62 36.6274 56.6274 42 50 42H38C31.3726 42 26 36.6274 26 30Z" fill="white" fill-opacity="0.5"/>
  
  <!-- Cloud 2 -->
  <path d="M150 60C150 53.3726 155.373 48 162 48H174C180.627 48 186 53.3726 186 60C186 66.6274 180.627 72 174 72H162C155.373 72 150 66.6274 150 60Z" fill="white" fill-opacity="0.5"/>
  <path d="M138 66C138 59.3726 143.373 54 150 54H162C168.627 54 174 59.3726 174 66C174 72.6274 168.627 78 162 78H150C143.373 78 138 72.6274 138 66Z" fill="white" fill-opacity="0.5"/>
  <path d="M126 60C126 53.3726 131.373 48 138 48H150C156.627 48 162 53.3726 162 60C162 66.6274 156.627 72 150 72H138C131.373 72 126 66.6274 126 60Z" fill="white" fill-opacity="0.5"/>
  
  <!-- Cloud 3 -->
  <path d="M190 30C190 23.3726 195.373 18 202 18H214C220.627 18 226 23.3726 226 30C226 36.6274 220.627 42 214 42H202C195.373 42 190 36.6274 190 30Z" fill="white" fill-opacity="0.5"/>
  <path d="M178 36C178 29.3726 183.373 24 190 24H202C208.627 24 214 29.3726 214 36C214 42.6274 208.627 48 202 48H190C183.373 48 178 42.6274 178 36Z" fill="white" fill-opacity="0.5"/>
  <path d="M166 30C166 23.3726 171.373 18 178 18H190C196.627 18 202 23.3726 202 30C202 36.6274 196.627 42 190 42H178C171.373 42 166 36.6274 166 30Z" fill="white" fill-opacity="0.5"/>
  
  <!-- Cloud 4 -->
  <path d="M10 90C10 83.3726 15.3726 78 22 78H34C40.6274 78 46 83.3726 46 90C46 96.6274 40.6274 102 34 102H22C15.3726 102 10 96.6274 10 90Z" fill="white" fill-opacity="0.5"/>
  <path d="M-2 96C-2 89.3726 3.37258 84 10 84H22C28.6274 84 34 89.3726 34 96C34 102.627 28.6274 108 22 108H10C3.37258 108 -2 102.627 -2 96Z" fill="white" fill-opacity="0.5"/>
  <path d="M-14 90C-14 83.3726 -8.62742 78 -2 78H10C16.6274 78 22 83.3726 22 90C22 96.6274 16.6274 102 10 102H-2C-8.62742 102 -14 96.6274 -14 90Z" fill="white" fill-opacity="0.5"/>
  
  <!-- Cloud 5 -->
  <path d="M94 90C94 83.3726 99.3726 78 106 78H118C124.627 78 130 83.3726 130 90C130 96.6274 124.627 102 118 102H106C99.3726 102 94 96.6274 94 90Z" fill="white" fill-opacity="0.5"/>
  <path d="M82 96C82 89.3726 87.3726 84 94 84H106C112.627 84 118 89.3726 118 96C118 102.627 112.627 108 106 108H94C87.3726 108 82 102.627 82 96Z" fill="white" fill-opacity="0.5"/>
  <path d="M70 90C70 83.3726 75.3726 78 82 78H94C100.627 78 106 83.3726 106 90C106 96.6274 100.627 102 94 102H82C75.3726 102 70 96.6274 70 90Z" fill="white" fill-opacity="0.5"/>
  
  <!-- Cloud 6 -->
  <path d="M214 90C214 83.3726 219.373 78 226 78H238C244.627 78 250 83.3726 250 90C250 96.6274 244.627 102 238 102H226C219.373 102 214 96.6274 214 90Z" fill="white" fill-opacity="0.5"/>
  <path d="M202 96C202 89.3726 207.373 84 214 84H226C232.627 84 238 89.3726 238 96C238 102.627 232.627 108 226 108H214C207.373 108 202 102.627 202 96Z" fill="white" fill-opacity="0.5"/>
  <path d="M190 90C190 83.3726 195.373 78 202 78H214C220.627 78 226 83.3726 226 90C226 96.6274 220.627 102 214 102H202C195.373 102 190 96.6274 190 90Z" fill="white" fill-opacity="0.5"/>
</svg>