<svg xmlns:dc="http://purl.org/dc/elements/1.1/" xmlns:cc="http://creativecommons.org/ns#" xmlns:rdf="http://www.w3.org/1999/02/22-rdf-syntax-ns#" xmlns:svg="http://www.w3.org/2000/svg" xmlns="http://www.w3.org/2000/svg" xmlns:xlink="http://www.w3.org/1999/xlink" id="svg272600" viewBox="0 0 1024 768" height="768px" width="1024px" version="1.1">
  <metadata id="metadata272606">
    <rdf:rdf>
      <cc:work rdf:about="">
        <dc:format>image/svg+xml</dc:format>
        <dc:type rdf:resource="http://purl.org/dc/dcmitype/StillImage"></dc:type>
      </cc:work>
    </rdf:rdf>
  </metadata>
  <defs id="defs272604"></defs>
  <linearGradient spreadMethod="pad" y2="30%" x2="-10%" y1="120%" x1="30%" id="3d_gradient2-logo-28eab640-dc02-40af-8681-bcc17b11c9d5">
    <stop id="stop272581" stop-opacity="1" stop-color="#ffffff" offset="0%"></stop>
    <stop id="stop272583" stop-opacity="1" stop-color="#000000" offset="100%"></stop>
  </linearGradient>
  <linearGradient gradientTransform="rotate(-30)" spreadMethod="pad" y2="30%" x2="-10%" y1="120%" x1="30%" id="3d_gradient3-logo-28eab640-dc02-40af-8681-bcc17b11c9d5">
    <stop id="stop272586" stop-opacity="1" stop-color="#ffffff" offset="0%"></stop>
    <stop id="stop272588" stop-opacity="1" stop-color="#cccccc" offset="50%"></stop>
    <stop id="stop272590" stop-opacity="1" stop-color="#000000" offset="100%"></stop>
  </linearGradient>
  <g id="logo-group">
    <image xlink:href="" id="container" x="272" y="144" width="480" height="480" transform="translate(0 0)" style="display: none;"></image>
    <g id="logo-center" transform="translate(27.250000000000057 0)">
      <image xlink:href="" id="icon_container" x="0" y="0" style="display: none;"></image>
      <g id="slogan" style="font-style:normal;font-weight:700;font-size:32px;line-height:1;font-family:'Comfortaa Bold Alt2';font-variant-ligatures:none;text-align:center;text-anchor:middle" transform="translate(0 0)">
        <path id="path272608" style="font-style:normal;font-weight:700;font-size:32px;line-height:1;font-family:'Comfortaa Bold Alt2';font-variant-ligatures:none;text-align:center;text-anchor:middle" d="m 314.0745,-2.656 c -0.32,-0.256 -0.704,-0.416 -1.184,-0.416 h -12.8 v -8 h 9.184 c 0.448,0 0.832,-0.128 1.152,-0.416 0.32,-0.288 0.48,-0.672 0.48,-1.12 0,-0.448 -0.16,-0.8 -0.48,-1.088 -0.32,-0.288 -0.704,-0.448 -1.152,-0.448 h -9.184 v -7.776 h 12.8 c 0.48,0 0.864,-0.128 1.184,-0.416 0.288,-0.256 0.448,-0.64 0.448,-1.088 0,-0.448 -0.16,-0.832 -0.448,-1.12 -0.32,-0.288 -0.704,-0.448 -1.184,-0.448 h -14.464 c -0.48,0 -0.864,0.16 -1.184,0.48 -0.32,0.32 -0.48,0.704 -0.48,1.184 v 21.664 c 0,0.48 0.16,0.864 0.48,1.184 0.32,0.32 0.704,0.48 1.184,0.48 h 14.464 c 0.48,0 0.864,-0.128 1.184,-0.416 0.288,-0.288 0.448,-0.672 0.448,-1.152 0,-0.448 -0.16,-0.8 -0.448,-1.088 z" stroke-width="0" stroke-linejoin="miter" stroke-miterlimit="2" fill="#c59f3e" stroke="#c59f3e" transform="translate(-1.1368683772161603e-13 368.0852) translate(420.83900000000006 56.248000000000005) scale(0.75) translate(-296.7625 24.992)"></path>
        <path id="path272610" style="font-style:normal;font-weight:700;font-size:32px;line-height:1;font-family:'Comfortaa Bold Alt2';font-variant-ligatures:none;text-align:center;text-anchor:middle" d="m 318.6255,-24.544 c -0.32,0.32 -0.448,0.704 -0.448,1.152 V -5.92 c 0,1.152 0.192,2.176 0.608,3.072 0.384,0.896 0.96,1.6 1.696,2.112 0.736,0.512 1.568,0.736 2.496,0.736 h 0.064 c 0.64,0 1.152,-0.128 1.568,-0.448 0.384,-0.288 0.608,-0.672 0.608,-1.152 0,-0.448 -0.16,-0.832 -0.416,-1.152 -0.256,-0.288 -0.608,-0.448 -1.024,-0.448 h -0.8 c -0.48,0 -0.864,-0.256 -1.152,-0.768 -0.32,-0.512 -0.448,-1.152 -0.448,-1.952 v -17.472 c 0,-0.448 -0.16,-0.832 -0.448,-1.152 -0.32,-0.288 -0.704,-0.448 -1.152,-0.448 -0.48,0 -0.864,0.16 -1.152,0.448 z" stroke-width="0" stroke-linejoin="miter" stroke-miterlimit="2" fill="#c59f3e" stroke="#c59f3e" transform="translate(-1.1368683772161603e-13 368.0852) translate(436.9002500000001 56.248000000000005) scale(0.75) translate(-318.1775 24.992)"></path>
        <path id="path272612" style="font-style:normal;font-weight:700;font-size:32px;line-height:1;font-family:'Comfortaa Bold Alt2';font-variant-ligatures:none;text-align:center;text-anchor:middle" d="m 335.025,0.128 c 2.112,0 3.968,-0.64 5.6,-1.984 0.352,-0.256 0.512,-0.608 0.576,-1.024 0.032,-0.448 -0.064,-0.8 -0.352,-1.152 -0.256,-0.32 -0.608,-0.512 -1.024,-0.544 -0.416,-0.032 -0.8,0.064 -1.12,0.352 -1.088,0.864 -2.304,1.28 -3.68,1.28 -1.6,0 -2.976,-0.544 -4.096,-1.696 -1.152,-1.12 -1.696,-2.496 -1.696,-4.096 0,-1.6 0.544,-2.976 1.696,-4.128 1.12,-1.12 2.496,-1.696 4.096,-1.696 1.312,0 2.496,0.416 3.552,1.216 1.024,0.8 1.696,1.824 2.048,3.072 h -5.6 c -0.416,0 -0.8,0.16 -1.088,0.448 -0.288,0.288 -0.448,0.672 -0.448,1.088 0,0.416 0.16,0.8 0.448,1.088 0.288,0.288 0.672,0.448 1.088,0.448 h 7.36 c 0.416,0 0.768,-0.16 1.056,-0.448 0.32,-0.288 0.48,-0.672 0.48,-1.088 0,-2.464 -0.896,-4.544 -2.624,-6.272 -1.728,-1.728 -3.808,-2.624 -6.272,-2.624 -2.464,0 -4.544,0.896 -6.272,2.624 -1.728,1.728 -2.592,3.808 -2.592,6.272 0,2.464 0.864,4.544 2.592,6.272 1.728,1.728 3.808,2.592 6.272,2.592 z" stroke-width="0" stroke-linejoin="miter" stroke-miterlimit="2" fill="#c59f3e" stroke="#c59f3e" transform="translate(-1.1368683772161603e-13 368.0852) translate(442.887875 61.768) scale(0.75) translate(-326.161 17.632)"></path>
        <path id="path272614" style="font-style:normal;font-weight:700;font-size:32px;line-height:1;font-family:'Comfortaa Bold Alt2';font-variant-ligatures:none;text-align:center;text-anchor:middle" d="m 360.867,-16.736 c -0.16,-0.224 -0.384,-0.416 -0.64,-0.544 -0.224,-0.096 -0.48,-0.16 -0.736,-0.16 -0.288,0 -0.544,0.096 -0.8,0.224 -0.256,0.128 -0.416,0.32 -0.544,0.576 l -5.504,12 -5.568,-12 c -0.128,-0.256 -0.32,-0.448 -0.544,-0.576 -0.256,-0.128 -0.48,-0.224 -0.736,-0.224 -0.256,0 -0.48,0.064 -0.672,0.16 -0.608,0.32 -0.896,0.736 -0.896,1.312 0,0.224 0.032,0.416 0.128,0.576 l 6.784,14.304 c 0.192,0.384 0.384,0.672 0.64,0.832 0.224,0.16 0.512,0.224 0.896,0.224 0.64,0 1.152,-0.352 1.472,-1.056 l 6.784,-14.304 c 0.096,-0.192 0.16,-0.416 0.16,-0.608 0,-0.256 -0.096,-0.512 -0.224,-0.736 z" stroke-width="0" stroke-linejoin="miter" stroke-miterlimit="2" fill="#c59f3e" stroke="#c59f3e" transform="translate(-1.1368683772161603e-13 368.0852) translate(456.437375 61.912000000000006) scale(0.75) translate(-344.227 17.44)"></path>
        <path id="path272616" style="font-style:normal;font-weight:700;font-size:32px;line-height:1;font-family:'Comfortaa Bold Alt2';font-variant-ligatures:none;text-align:center;text-anchor:middle" d="m 377.8365,-15.008 c -1.728,-1.728 -3.808,-2.624 -6.272,-2.624 -2.432,0 -4.544,0.896 -6.272,2.624 -1.728,1.728 -2.592,3.808 -2.592,6.272 0,2.464 0.864,4.544 2.592,6.272 1.728,1.728 3.84,2.592 6.272,2.592 2.208,0 4.16,-0.704 5.824,-2.144 v 0.608 c 0,0.448 0.128,0.8 0.448,1.088 0.288,0.32 0.64,0.448 1.088,0.448 0.416,0 0.768,-0.128 1.088,-0.448 0.288,-0.288 0.448,-0.64 0.448,-1.088 v -7.328 c 0,-2.464 -0.864,-4.544 -2.624,-6.272 z m -6.272,12.064 c -1.6,0 -2.976,-0.544 -4.096,-1.696 -1.152,-1.12 -1.696,-2.496 -1.696,-4.096 0,-1.6 0.544,-2.976 1.696,-4.096 1.12,-1.152 2.496,-1.728 4.096,-1.728 1.6,0 2.976,0.576 4.096,1.728 1.152,1.12 1.728,2.496 1.728,4.096 0,1.6 -0.576,2.976 -1.728,4.096 -1.12,1.152 -2.496,1.696 -4.096,1.696 z" stroke-width="0" stroke-linejoin="miter" stroke-miterlimit="2" fill="#c59f3e" stroke="#c59f3e" transform="translate(-1.1368683772161603e-13 368.0852) translate(470.2925 61.768) scale(0.75) translate(-362.7005 17.632)"></path>
        <path id="path272618" style="font-style:normal;font-weight:700;font-size:32px;line-height:1;font-family:'Comfortaa Bold Alt2';font-variant-ligatures:none;text-align:center;text-anchor:middle" d="m 392.6135,-3.2 c -0.928,0 -1.728,-0.32 -2.368,-0.992 -0.672,-0.64 -0.992,-1.44 -0.992,-2.368 v -7.52 h 2.848 c 0.384,0 0.736,-0.128 1.024,-0.416 0.256,-0.256 0.416,-0.608 0.416,-1.024 0,-0.384 -0.16,-0.736 -0.416,-1.024 -0.288,-0.256 -0.64,-0.416 -1.024,-0.416 h -2.848 v -4.512 c 0,-0.448 -0.16,-0.8 -0.48,-1.12 -0.32,-0.32 -0.672,-0.48 -1.12,-0.48 -0.448,0 -0.832,0.16 -1.152,0.48 -0.32,0.32 -0.448,0.672 -0.448,1.12 V -6.56 c 0,1.824 0.64,3.36 1.92,4.64 1.28,1.28 2.816,1.92 4.64,1.92 0.448,0 0.8,-0.128 1.12,-0.448 0.32,-0.32 0.48,-0.704 0.48,-1.152 0,-0.448 -0.16,-0.8 -0.48,-1.12 -0.32,-0.32 -0.672,-0.48 -1.12,-0.48 z" stroke-width="0" stroke-linejoin="miter" stroke-miterlimit="2" fill="#c59f3e" stroke="#c59f3e" transform="translate(-1.1368683772161603e-13 368.0852) translate(487.80725 57.688) scale(0.75) translate(-386.0535 23.072)"></path>
        <path id="path272620" style="font-style:normal;font-weight:700;font-size:32px;line-height:1;font-family:'Comfortaa Bold Alt2';font-variant-ligatures:none;text-align:center;text-anchor:middle" d="m 398.898,-17.056 c -0.32,0.32 -0.448,0.704 -0.448,1.184 v 14.24 c 0,0.48 0.128,0.864 0.448,1.184 0.32,0.32 0.704,0.448 1.184,0.448 0.48,0 0.864,-0.128 1.184,-0.448 0.288,-0.32 0.448,-0.704 0.448,-1.184 v -14.24 c 0,-0.48 -0.16,-0.864 -0.448,-1.184 -0.32,-0.288 -0.704,-0.448 -1.184,-0.448 -0.48,0 -0.864,0.16 -1.184,0.448 z m 2.656,-6.88 c -0.416,-0.416 -0.896,-0.64 -1.472,-0.64 -0.576,0 -1.088,0.224 -1.504,0.64 -0.416,0.416 -0.608,0.896 -0.608,1.472 0,0.576 0.192,1.088 0.608,1.504 0.416,0.416 0.928,0.608 1.504,0.608 0.576,0 1.056,-0.192 1.472,-0.608 0.416,-0.416 0.64,-0.928 0.64,-1.504 0,-0.576 -0.224,-1.056 -0.64,-1.472 z" stroke-width="0" stroke-linejoin="miter" stroke-miterlimit="2" fill="#c59f3e" stroke="#c59f3e" transform="translate(-1.1368683772161603e-13 368.0852) translate(496.74462500000004 56.56) scale(0.75) translate(-397.97 24.576)"></path>
        <path id="path272622" style="font-style:normal;font-weight:700;font-size:32px;line-height:1;font-family:'Comfortaa Bold Alt2';font-variant-ligatures:none;text-align:center;text-anchor:middle" d="m 422.5695,0.096 c 0.448,0 0.832,-0.16 1.152,-0.48 0.32,-0.32 0.448,-0.704 0.448,-1.152 V -9.76 c 0,-2.24 -0.8,-4.16 -2.368,-5.76 -1.6,-1.6 -3.552,-2.4 -5.792,-2.4 -2.272,0 -4.192,0.8 -5.792,2.4 -1.6,1.6 -2.4,3.52 -2.4,5.76 v 8.224 c 0,0.448 0.16,0.832 0.48,1.152 0.32,0.32 0.704,0.448 1.12,0.448 0.448,0 0.832,-0.128 1.152,-0.448 0.32,-0.32 0.448,-0.704 0.448,-1.152 V -9.76 c 0,-1.344 0.512,-2.528 1.472,-3.488 0.96,-0.992 2.144,-1.472 3.52,-1.472 1.376,0 2.528,0.48 3.52,1.472 0.96,0.96 1.44,2.144 1.44,3.488 v 8.256 c 0,0.416 0.16,0.8 0.48,1.12 0.32,0.32 0.704,0.48 1.12,0.48 z" stroke-width="0" stroke-linejoin="miter" stroke-miterlimit="2" fill="#c59f3e" stroke="#c59f3e" transform="translate(-1.1368683772161603e-13 368.0852) translate(504.13025000000005 61.55200000000001) scale(0.75) translate(-407.8175 17.92)"></path>
        <path id="path272624" style="font-style:normal;font-weight:700;font-size:32px;line-height:1;font-family:'Comfortaa Bold Alt2';font-variant-ligatures:none;text-align:center;text-anchor:middle" d="m 446.43,-8.768 c 0,-2.464 -0.896,-4.544 -2.624,-6.304 -1.76,-1.728 -3.84,-2.624 -6.304,-2.624 -2.464,0 -4.544,0.896 -6.304,2.624 -1.728,1.76 -2.592,3.84 -2.592,6.304 0,2.464 0.864,4.544 2.592,6.304 1.76,1.728 3.84,2.592 6.304,2.592 2.208,0 4.128,-0.704 5.824,-2.144 v 0.608 c 0,1.6 -0.576,2.976 -1.696,4.096 -1.152,1.152 -2.528,1.696 -4.128,1.696 -0.992,0 -1.92,-0.224 -2.784,-0.704 -0.864,-0.448 -1.568,-1.12 -2.08,-1.952 -0.256,-0.352 -0.576,-0.576 -0.992,-0.64 -0.416,-0.096 -0.8,-0.032 -1.152,0.192 -0.352,0.224 -0.576,0.544 -0.672,0.96 -0.096,0.416 0,0.8 0.224,1.152 0.544,0.864 1.216,1.6 1.984,2.208 0.768,0.608 1.632,1.056 2.56,1.376 0.928,0.32 1.92,0.48 2.912,0.48 2.464,0 4.544,-0.864 6.272,-2.592 1.728,-1.728 2.624,-3.808 2.624,-6.272 V -8 c 0,-0.256 0.032,-0.512 0.032,-0.768 z m -8.928,5.76 c -1.6,0 -2.944,-0.544 -4.064,-1.696 -1.152,-1.12 -1.696,-2.464 -1.696,-4.064 0,-1.6 0.544,-2.944 1.696,-4.096 1.12,-1.12 2.464,-1.696 4.064,-1.696 1.6,0 2.944,0.576 4.096,1.696 1.12,1.152 1.696,2.496 1.696,4.096 0,1.6 -0.576,2.944 -1.696,4.064 -1.152,1.152 -2.496,1.696 -4.096,1.696 z" stroke-width="0" stroke-linejoin="miter" stroke-miterlimit="2" fill="#c59f3e" stroke="#c59f3e" transform="translate(-1.1368683772161603e-13 368.0852) translate(519.7216250000001 61.72) scale(0.75) translate(-428.606 17.696)"></path>
        <path id="path272626" style="font-style:normal;font-weight:700;font-size:32px;line-height:1;font-family:'Comfortaa Bold Alt2';font-variant-ligatures:none;text-align:center;text-anchor:middle" d="m 474.998,-16.096 c 0,-0.576 -0.352,-0.992 -0.992,-1.248 -0.256,-0.096 -0.512,-0.16 -0.768,-0.16 -0.576,0 -0.992,0.32 -1.248,0.928 l -5.152,11.616 -5.856,-11.648 c -0.32,-0.576 -0.768,-0.896 -1.344,-0.896 -0.256,0 -0.448,0.064 -0.64,0.128 -0.288,0.128 -0.512,0.32 -0.672,0.544 -0.192,0.256 -0.256,0.512 -0.256,0.768 0,0.256 0.032,0.48 0.16,0.672 l 7.2,13.664 -3.2,7.2 c -0.128,0.256 -0.192,0.512 -0.192,0.768 0,0.576 0.32,0.992 0.96,1.248 0.288,0.128 0.544,0.192 0.768,0.192 0.576,0 0.992,-0.32 1.248,-0.992 l 9.792,-22.016 c 0.128,-0.288 0.192,-0.544 0.192,-0.768 z" stroke-width="0" stroke-linejoin="miter" stroke-miterlimit="2" fill="#c59f3e" stroke="#c59f3e" transform="translate(-1.1368683772161603e-13 368.0852) translate(541.8196250000002 61.864000000000004) scale(0.75) translate(-458.07 17.504)"></path>
        <path id="path272628" style="font-style:normal;font-weight:700;font-size:32px;line-height:1;font-family:'Comfortaa Bold Alt2';font-variant-ligatures:none;text-align:center;text-anchor:middle" d="m 485.159,0.128 c 2.464,0 4.544,-0.864 6.272,-2.592 1.728,-1.728 2.624,-3.808 2.624,-6.272 0,-2.464 -0.896,-4.544 -2.624,-6.272 -1.728,-1.728 -3.808,-2.624 -6.272,-2.624 -2.464,0 -4.544,0.896 -6.272,2.624 -1.728,1.728 -2.592,3.808 -2.592,6.272 0,2.464 0.864,4.544 2.592,6.272 1.728,1.728 3.808,2.592 6.272,2.592 z m 0,-14.688 c 1.6,0 2.976,0.576 4.128,1.696 1.12,1.152 1.696,2.528 1.696,4.128 0,1.6 -0.576,2.976 -1.696,4.096 -1.152,1.152 -2.528,1.696 -4.128,1.696 -1.6,0 -2.976,-0.544 -4.096,-1.696 -1.152,-1.12 -1.696,-2.496 -1.696,-4.096 0,-1.6 0.544,-2.976 1.696,-4.128 1.12,-1.12 2.496,-1.696 4.096,-1.696 z" stroke-width="0" stroke-linejoin="miter" stroke-miterlimit="2" fill="#c59f3e" stroke="#c59f3e" transform="translate(-1.1368683772161603e-13 368.0852) translate(555.4883750000002 61.768) scale(0.75) translate(-476.295 17.632)"></path>
        <path id="path272630" style="font-style:normal;font-weight:700;font-size:32px;line-height:1;font-family:'Comfortaa Bold Alt2';font-variant-ligatures:none;text-align:center;text-anchor:middle" d="m 513.312,-17.568 c -0.448,0 -0.832,0.16 -1.152,0.48 -0.32,0.32 -0.448,0.672 -0.448,1.12 V -8 c 0,1.376 -0.512,2.56 -1.472,3.52 -0.992,0.992 -2.144,1.472 -3.52,1.472 -1.376,0 -2.528,-0.48 -3.52,-1.472 -0.96,-0.96 -1.44,-2.144 -1.44,-3.52 v -7.968 c 0,-0.448 -0.16,-0.8 -0.48,-1.12 -0.32,-0.32 -0.672,-0.48 -1.12,-0.48 -0.448,0 -0.832,0.16 -1.152,0.48 -0.32,0.32 -0.448,0.672 -0.448,1.12 V -8 c 0,2.272 0.768,4.192 2.368,5.792 1.6,1.6 3.52,2.4 5.792,2.4 2.24,0 4.192,-0.8 5.792,-2.4 1.6,-1.6 2.4,-3.52 2.4,-5.792 v -7.968 c 0,-0.448 -0.16,-0.8 -0.48,-1.12 -0.32,-0.32 -0.672,-0.48 -1.12,-0.48 z" stroke-width="0" stroke-linejoin="miter" stroke-miterlimit="2" fill="#c59f3e" stroke="#c59f3e" transform="translate(-1.1368683772161603e-13 368.0852) translate(572.1871250000003 61.816) scale(0.75) translate(-498.56 17.568)"></path>
        <path id="path272632" style="font-style:normal;font-weight:700;font-size:32px;line-height:1;font-family:'Comfortaa Bold Alt2';font-variant-ligatures:none;text-align:center;text-anchor:middle" d="m 530.4525,-17.984 c -2.688,0 -4.96,0.96 -6.88,2.848 -1.888,1.888 -2.816,4.16 -2.816,6.848 v 6.752 c 0,0.448 0.128,0.8 0.448,1.088 0.288,0.32 0.64,0.448 1.088,0.448 0.416,0 0.768,-0.128 1.056,-0.448 0.32,-0.288 0.48,-0.64 0.48,-1.088 v -6.752 c 0,-1.824 0.64,-3.392 1.92,-4.672 1.312,-1.312 2.88,-1.952 4.704,-1.952 0.416,0 0.768,-0.16 1.088,-0.448 0.288,-0.32 0.448,-0.672 0.448,-1.088 0,-0.416 -0.16,-0.8 -0.448,-1.088 -0.32,-0.288 -0.672,-0.448 -1.088,-0.448 z" stroke-width="0" stroke-linejoin="miter" stroke-miterlimit="2" fill="#c59f3e" stroke="#c59f3e" transform="translate(-1.1368683772161603e-13 368.0852) translate(588.8345000000002 61.504000000000005) scale(0.75) translate(-520.7565 17.984)"></path>
        <path id="path272634" style="font-style:normal;font-weight:700;font-size:32px;line-height:1;font-family:'Comfortaa Bold Alt2';font-variant-ligatures:none;text-align:center;text-anchor:middle" d="m 563.262,-2.656 c -0.32,-0.256 -0.704,-0.416 -1.184,-0.416 h -12.8 v -8 h 9.184 c 0.448,0 0.832,-0.128 1.152,-0.416 0.32,-0.288 0.48,-0.672 0.48,-1.12 0,-0.448 -0.16,-0.8 -0.48,-1.088 -0.32,-0.288 -0.704,-0.448 -1.152,-0.448 h -9.184 v -7.776 h 12.8 c 0.48,0 0.864,-0.128 1.184,-0.416 0.288,-0.256 0.448,-0.64 0.448,-1.088 0,-0.448 -0.16,-0.832 -0.448,-1.12 -0.32,-0.288 -0.704,-0.448 -1.184,-0.448 h -14.464 c -0.48,0 -0.864,0.16 -1.184,0.48 -0.32,0.32 -0.48,0.704 -0.48,1.184 v 21.664 c 0,0.48 0.16,0.864 0.48,1.184 0.32,0.32 0.704,0.48 1.184,0.48 h 14.464 c 0.48,0 0.864,-0.128 1.184,-0.416 0.288,-0.288 0.448,-0.672 0.448,-1.152 0,-0.448 -0.16,-0.8 -0.448,-1.088 z" stroke-width="0" stroke-linejoin="miter" stroke-miterlimit="2" fill="#c59f3e" stroke="#c59f3e" transform="translate(-1.1368683772161603e-13 368.0852) translate(607.7296250000002 56.248000000000005) scale(0.75) translate(-545.95 24.992)"></path>
        <path id="path272636" style="font-style:normal;font-weight:700;font-size:32px;line-height:1;font-family:'Comfortaa Bold Alt2';font-variant-ligatures:none;text-align:center;text-anchor:middle" d="m 580.7955,-1.344 c 0,-0.416 -0.16,-0.8 -0.448,-1.12 l -5.088,-6.08 4.832,-6.304 c 0.288,-0.384 0.448,-0.8 0.448,-1.28 0,-0.384 -0.128,-0.704 -0.384,-0.96 -0.256,-0.256 -0.576,-0.416 -0.992,-0.416 -0.512,0 -0.928,0.192 -1.184,0.544 l -4.704,6.272 -5.248,-6.272 c -0.32,-0.352 -0.704,-0.544 -1.216,-0.544 -0.448,0 -0.8,0.128 -1.056,0.384 -0.256,0.256 -0.352,0.576 -0.352,0.928 0,0.448 0.16,0.832 0.48,1.216 l 5.28,6.24 -4.96,6.208 c -0.32,0.384 -0.448,0.768 -0.448,1.184 0,0.384 0.096,0.704 0.352,0.96 0.256,0.256 0.576,0.384 1.024,0.384 0.448,0 0.832,-0.16 1.152,-0.512 l 4.832,-6.08 5.088,6.08 c 0.256,0.352 0.64,0.512 1.152,0.512 0.416,0 0.768,-0.128 1.024,-0.384 0.256,-0.256 0.416,-0.576 0.416,-0.96 z" stroke-width="0" stroke-linejoin="miter" stroke-miterlimit="2" fill="#c59f3e" stroke="#c59f3e" transform="translate(-1.1368683772161603e-13 368.0852) translate(622.3197500000002 61.864000000000004) scale(0.75) translate(-565.4035 17.504)"></path>
        <path id="path272638" style="font-style:normal;font-weight:700;font-size:32px;line-height:1;font-family:'Comfortaa Bold Alt2';font-variant-ligatures:none;text-align:center;text-anchor:middle" d="m 600.016,-15.008 c -1.728,-1.728 -3.808,-2.592 -6.272,-2.592 -2.464,0 -4.544,0.864 -6.272,2.592 -1.728,1.728 -2.592,3.84 -2.592,6.272 v 14.72 c 0,0.448 0.128,0.8 0.448,1.088 0.288,0.32 0.64,0.448 1.088,0.448 0.416,0 0.768,-0.128 1.056,-0.448 0.32,-0.288 0.48,-0.64 0.48,-1.088 v -8 c 1.632,1.44 3.584,2.176 5.792,2.176 2.464,0 4.544,-0.864 6.272,-2.592 1.728,-1.76 2.624,-3.84 2.624,-6.304 0,-2.432 -0.896,-4.544 -2.624,-6.272 z m -6.272,12.096 c -1.6,0 -2.976,-0.576 -4.096,-1.696 -1.152,-1.152 -1.696,-2.528 -1.696,-4.128 0,-1.024 0.256,-2.016 0.768,-2.912 0.512,-0.896 1.216,-1.6 2.112,-2.112 0.896,-0.512 1.856,-0.768 2.912,-0.768 1.6,0 2.976,0.576 4.096,1.696 1.152,1.152 1.728,2.496 1.728,4.096 0,1.6 -0.576,2.976 -1.728,4.128 -1.12,1.12 -2.496,1.696 -4.096,1.696 z" stroke-width="0" stroke-linejoin="miter" stroke-miterlimit="2" fill="#c59f3e" stroke="#c59f3e" transform="translate(-1.1368683772161603e-13 368.0852) translate(636.9271250000002 61.792) scale(0.75) translate(-584.88 17.6)"></path>
        <path id="path272640" style="font-style:normal;font-weight:700;font-size:32px;line-height:1;font-family:'Comfortaa Bold Alt2';font-variant-ligatures:none;text-align:center;text-anchor:middle" d="m 614.9,0.128 c 2.112,0 3.968,-0.64 5.6,-1.984 0.352,-0.256 0.512,-0.608 0.576,-1.024 0.032,-0.448 -0.064,-0.8 -0.352,-1.152 -0.256,-0.32 -0.608,-0.512 -1.024,-0.544 -0.416,-0.032 -0.8,0.064 -1.12,0.352 -1.088,0.864 -2.304,1.28 -3.68,1.28 -1.6,0 -2.976,-0.544 -4.096,-1.696 -1.152,-1.12 -1.696,-2.496 -1.696,-4.096 0,-1.6 0.544,-2.976 1.696,-4.128 1.12,-1.12 2.496,-1.696 4.096,-1.696 1.312,0 2.496,0.416 3.552,1.216 1.024,0.8 1.696,1.824 2.048,3.072 h -5.6 c -0.416,0 -0.8,0.16 -1.088,0.448 -0.288,0.288 -0.448,0.672 -0.448,1.088 0,0.416 0.16,0.8 0.448,1.088 0.288,0.288 0.672,0.448 1.088,0.448 h 7.36 c 0.416,0 0.768,-0.16 1.056,-0.448 0.32,-0.288 0.48,-0.672 0.48,-1.088 0,-2.464 -0.896,-4.544 -2.624,-6.272 -1.728,-1.728 -3.808,-2.624 -6.272,-2.624 -2.464,0 -4.544,0.896 -6.272,2.624 -1.728,1.728 -2.592,3.808 -2.592,6.272 0,2.464 0.864,4.544 2.592,6.272 1.728,1.728 3.808,2.592 6.272,2.592 z" stroke-width="0" stroke-linejoin="miter" stroke-miterlimit="2" fill="#c59f3e" stroke="#c59f3e" transform="translate(-1.1368683772161603e-13 368.0852) translate(652.7941250000001 61.768) scale(0.75) translate(-606.036 17.632)"></path>
        <path id="path272642" style="font-style:normal;font-weight:700;font-size:32px;line-height:1;font-family:'Comfortaa Bold Alt2';font-variant-ligatures:none;text-align:center;text-anchor:middle" d="m 637.015,-17.984 c -2.688,0 -4.96,0.96 -6.88,2.848 -1.888,1.888 -2.816,4.16 -2.816,6.848 v 6.752 c 0,0.448 0.128,0.8 0.448,1.088 0.288,0.32 0.64,0.448 1.088,0.448 0.416,0 0.768,-0.128 1.056,-0.448 0.32,-0.288 0.48,-0.64 0.48,-1.088 v -6.752 c 0,-1.824 0.64,-3.392 1.92,-4.672 1.312,-1.312 2.88,-1.952 4.704,-1.952 0.416,0 0.768,-0.16 1.088,-0.448 0.288,-0.32 0.448,-0.672 0.448,-1.088 0,-0.416 -0.16,-0.8 -0.448,-1.088 -0.32,-0.288 -0.672,-0.448 -1.088,-0.448 z" stroke-width="0" stroke-linejoin="miter" stroke-miterlimit="2" fill="#c59f3e" stroke="#c59f3e" transform="translate(-1.1368683772161603e-13 368.0852) translate(668.7563750000002 61.504000000000005) scale(0.75) translate(-627.319 17.984)"></path>
        <path id="path272644" style="font-style:normal;font-weight:700;font-size:32px;line-height:1;font-family:'Comfortaa Bold Alt2';font-variant-ligatures:none;text-align:center;text-anchor:middle" d="m 643.5855,-17.056 c -0.32,0.32 -0.448,0.704 -0.448,1.184 v 14.24 c 0,0.48 0.128,0.864 0.448,1.184 0.32,0.32 0.704,0.448 1.184,0.448 0.48,0 0.864,-0.128 1.184,-0.448 0.288,-0.32 0.448,-0.704 0.448,-1.184 v -14.24 c 0,-0.48 -0.16,-0.864 -0.448,-1.184 -0.32,-0.288 -0.704,-0.448 -1.184,-0.448 -0.48,0 -0.864,0.16 -1.184,0.448 z m 2.656,-6.88 c -0.416,-0.416 -0.896,-0.64 -1.472,-0.64 -0.576,0 -1.088,0.224 -1.504,0.64 -0.416,0.416 -0.608,0.896 -0.608,1.472 0,0.576 0.192,1.088 0.608,1.504 0.416,0.416 0.928,0.608 1.504,0.608 0.576,0 1.056,-0.192 1.472,-0.608 0.416,-0.416 0.64,-0.928 0.64,-1.504 0,-0.576 -0.224,-1.056 -0.64,-1.472 z" stroke-width="0" stroke-linejoin="miter" stroke-miterlimit="2" fill="#c59f3e" stroke="#c59f3e" transform="translate(-1.1368683772161603e-13 368.0852) translate(680.2602500000003 56.56) scale(0.75) translate(-642.6575 24.576)"></path>
        <path id="path272646" style="font-style:normal;font-weight:700;font-size:32px;line-height:1;font-family:'Comfortaa Bold Alt2';font-variant-ligatures:none;text-align:center;text-anchor:middle" d="m 660.025,0.128 c 2.112,0 3.968,-0.64 5.6,-1.984 0.352,-0.256 0.512,-0.608 0.576,-1.024 0.032,-0.448 -0.064,-0.8 -0.352,-1.152 -0.256,-0.32 -0.608,-0.512 -1.024,-0.544 -0.416,-0.032 -0.8,0.064 -1.12,0.352 -1.088,0.864 -2.304,1.28 -3.68,1.28 -1.6,0 -2.976,-0.544 -4.096,-1.696 -1.152,-1.12 -1.696,-2.496 -1.696,-4.096 0,-1.6 0.544,-2.976 1.696,-4.128 1.12,-1.12 2.496,-1.696 4.096,-1.696 1.312,0 2.496,0.416 3.552,1.216 1.024,0.8 1.696,1.824 2.048,3.072 h -5.6 c -0.416,0 -0.8,0.16 -1.088,0.448 -0.288,0.288 -0.448,0.672 -0.448,1.088 0,0.416 0.16,0.8 0.448,1.088 0.288,0.288 0.672,0.448 1.088,0.448 h 7.36 c 0.416,0 0.768,-0.16 1.056,-0.448 0.32,-0.288 0.48,-0.672 0.48,-1.088 0,-2.464 -0.896,-4.544 -2.624,-6.272 -1.728,-1.728 -3.808,-2.624 -6.272,-2.624 -2.464,0 -4.544,0.896 -6.272,2.624 -1.728,1.728 -2.592,3.808 -2.592,6.272 0,2.464 0.864,4.544 2.592,6.272 1.728,1.728 3.808,2.592 6.272,2.592 z" stroke-width="0" stroke-linejoin="miter" stroke-miterlimit="2" fill="#c59f3e" stroke="#c59f3e" transform="translate(-1.1368683772161603e-13 368.0852) translate(686.6378750000001 61.768) scale(0.75) translate(-651.161 17.632)"></path>
        <path id="path272648" style="font-style:normal;font-weight:700;font-size:32px;line-height:1;font-family:'Comfortaa Bold Alt2';font-variant-ligatures:none;text-align:center;text-anchor:middle" d="m 687.132,0.096 c 0.448,0 0.832,-0.16 1.152,-0.48 0.32,-0.32 0.448,-0.704 0.448,-1.152 V -9.76 c 0,-2.24 -0.8,-4.16 -2.368,-5.76 -1.6,-1.6 -3.552,-2.4 -5.792,-2.4 -2.272,0 -4.192,0.8 -5.792,2.4 -1.6,1.6 -2.4,3.52 -2.4,5.76 v 8.224 c 0,0.448 0.16,0.832 0.48,1.152 0.32,0.32 0.704,0.448 1.12,0.448 0.448,0 0.832,-0.128 1.152,-0.448 0.32,-0.32 0.448,-0.704 0.448,-1.152 V -9.76 c 0,-1.344 0.512,-2.528 1.472,-3.488 0.96,-0.992 2.144,-1.472 3.52,-1.472 1.376,0 2.528,0.48 3.52,1.472 0.96,0.96 1.44,2.144 1.44,3.488 v 8.256 c 0,0.416 0.16,0.8 0.48,1.12 0.32,0.32 0.704,0.48 1.12,0.48 z" stroke-width="0" stroke-linejoin="miter" stroke-miterlimit="2" fill="#c59f3e" stroke="#c59f3e" transform="translate(-1.1368683772161603e-13 368.0852) translate(702.5521250000002 61.55200000000001) scale(0.75) translate(-672.38 17.92)"></path>
        <path id="path272650" style="font-style:normal;font-weight:700;font-size:32px;line-height:1;font-family:'Comfortaa Bold Alt2';font-variant-ligatures:none;text-align:center;text-anchor:middle" d="m 708.2405,-14.752 c -1.664,-1.92 -3.776,-2.88 -6.272,-2.88 -1.664,0 -3.168,0.384 -4.48,1.152 -1.344,0.768 -2.368,1.824 -3.104,3.168 -0.736,1.344 -1.088,2.88 -1.088,4.576 0,1.664 0.352,3.2 1.12,4.544 0.768,1.344 1.824,2.4 3.168,3.168 1.344,0.768 2.848,1.152 4.544,1.152 2.304,0 4.224,-0.704 5.76,-2.144 0.256,-0.256 0.384,-0.544 0.384,-0.864 0,-0.416 -0.224,-0.8 -0.608,-1.152 -0.256,-0.192 -0.544,-0.288 -0.832,-0.288 -0.384,0 -0.8,0.16 -1.184,0.448 -0.896,0.768 -2.08,1.12 -3.52,1.12 -1.12,0 -2.112,-0.256 -2.976,-0.768 -0.864,-0.512 -1.536,-1.216 -2.016,-2.112 -0.48,-0.896 -0.704,-1.952 -0.704,-3.104 0,-1.792 0.512,-3.264 1.536,-4.352 1.024,-1.088 2.336,-1.664 4,-1.664 0.8,0 1.504,0.16 2.144,0.416 0.64,0.256 1.216,0.672 1.76,1.248 0.32,0.384 0.736,0.576 1.248,0.576 0.256,0 0.512,-0.064 0.736,-0.224 0.448,-0.32 0.704,-0.704 0.704,-1.184 0,-0.32 -0.128,-0.576 -0.32,-0.832 z" stroke-width="0" stroke-linejoin="miter" stroke-miterlimit="2" fill="#c59f3e" stroke="#c59f3e" transform="translate(-1.1368683772161603e-13 368.0852) translate(718.2395000000002 61.768) scale(0.75) translate(-693.2965 17.632)"></path>
        <path id="path272652" style="font-style:normal;font-weight:700;font-size:32px;line-height:1;font-family:'Comfortaa Bold Alt2';font-variant-ligatures:none;text-align:center;text-anchor:middle" d="m 720.9625,0.128 c 2.112,0 3.968,-0.64 5.6,-1.984 0.352,-0.256 0.512,-0.608 0.576,-1.024 0.032,-0.448 -0.064,-0.8 -0.352,-1.152 -0.256,-0.32 -0.608,-0.512 -1.024,-0.544 -0.416,-0.032 -0.8,0.064 -1.12,0.352 -1.088,0.864 -2.304,1.28 -3.68,1.28 -1.6,0 -2.976,-0.544 -4.096,-1.696 -1.152,-1.12 -1.696,-2.496 -1.696,-4.096 0,-1.6 0.544,-2.976 1.696,-4.128 1.12,-1.12 2.496,-1.696 4.096,-1.696 1.312,0 2.496,0.416 3.552,1.216 1.024,0.8 1.696,1.824 2.048,3.072 h -5.6 c -0.416,0 -0.8,0.16 -1.088,0.448 -0.288,0.288 -0.448,0.672 -0.448,1.088 0,0.416 0.16,0.8 0.448,1.088 0.288,0.288 0.672,0.448 1.088,0.448 h 7.36 c 0.416,0 0.768,-0.16 1.056,-0.448 0.32,-0.288 0.48,-0.672 0.48,-1.088 0,-2.464 -0.896,-4.544 -2.624,-6.272 -1.728,-1.728 -3.808,-2.624 -6.272,-2.624 -2.464,0 -4.544,0.896 -6.272,2.624 -1.728,1.728 -2.592,3.808 -2.592,6.272 0,2.464 0.864,4.544 2.592,6.272 1.728,1.728 3.808,2.592 6.272,2.592 z" stroke-width="0" stroke-linejoin="miter" stroke-miterlimit="2" fill="#c59f3e" stroke="#c59f3e" transform="translate(-1.1368683772161603e-13 368.0852) translate(732.3410000000001 61.768) scale(0.75) translate(-712.0985 17.632)"></path>
      </g>
      <g id="title" style="font-style:normal;font-weight:300;font-size:72px;line-height:1;font-family:'Montserrat Light Alt1';font-variant-ligatures:none;text-align:center;text-anchor:middle" transform="translate(0 0)">
        <path id="path272655" style="font-style:normal;font-weight:300;font-size:72px;line-height:1;font-family:'Montserrat Light Alt1';font-variant-ligatures:none;text-align:center;text-anchor:middle" d="m 415.574,-50.4 h -3.672 V -6.624 L 377.63,-50.4 h -3.096 V 0 h 3.672 V -43.776 L 412.55,0 h 3.024 z" stroke-width="0" stroke-linejoin="miter" stroke-miterlimit="2" fill="#4e8b8a" stroke="#4e8b8a" transform="translate(0 303.172) translate(349.64716854999995 16.592000000000006) scale(1.67) translate(-374.534 50.4)"></path>
        <path id="path272657" style="font-style:normal;font-weight:300;font-size:72px;line-height:1;font-family:'Montserrat Light Alt1';font-variant-ligatures:none;text-align:center;text-anchor:middle" d="m 451.60662,-50.4 h -3.672 L 424.75063,0 h 3.95999 l 21.024,-46.368 21.096,46.368 h 3.96 z" stroke-width="0" stroke-linejoin="miter" stroke-miterlimit="2" fill="#4e8b8a" stroke="#4e8b8a" transform="translate(0 303.172) translate(433.5089406499999 16.592000000000006) scale(1.67) translate(-424.75063 50.4)"></path>
        <path id="path272659" style="font-style:normal;font-weight:300;font-size:72px;line-height:1;font-family:'Montserrat Light Alt1';font-variant-ligatures:none;text-align:center;text-anchor:middle" d="m 521.657,-50.4 h -3.816 L 497.465,-4.752 477.089,-50.4 h -4.032 L 495.521,0 h 3.672 z" stroke-width="0" stroke-linejoin="miter" stroke-miterlimit="2" fill="#4e8b8a" stroke="#4e8b8a" transform="translate(0 303.172) translate(514.18057855 16.592000000000006) scale(1.67) translate(-473.057 50.4)"></path>
        <path id="path272661" style="font-style:normal;font-weight:300;font-size:72px;line-height:1;font-family:'Montserrat Light Alt1';font-variant-ligatures:none;text-align:center;text-anchor:middle" d="M 529.784,-50.4 V 0 h 3.672 v -50.4 z" stroke-width="0" stroke-linejoin="miter" stroke-miterlimit="2" fill="#4e8b8a" stroke="#4e8b8a" transform="translate(0 303.172) translate(608.9146685499999 16.592000000000006) scale(1.67) translate(-529.784 50.4)"></path>
        <path id="path272663" style="font-style:normal;font-weight:300;font-size:72px;line-height:1;font-family:'Montserrat Light Alt1';font-variant-ligatures:none;text-align:center;text-anchor:middle" d="m 587.01837,-24.984 v 17.352 c -3.816,3.096 -8.568,4.608 -14.32799,4.608 -4.32001,0 -8.208,-0.936 -11.664,-2.88 -3.456,-1.944 -6.192,-4.608 -8.20801,-7.992 -2.016,-3.384 -2.952,-7.128 -2.952,-11.304 0,-4.176 0.936,-7.92 2.952,-11.304 1.94401,-3.384 4.68,-6.048 8.13601,-7.992 3.456,-1.872 7.41599,-2.88 11.736,-2.88 3.168,0 6.048,0.504 8.63999,1.44 2.592,0.936 4.968,2.448 7.12801,4.536 l 2.304,-2.448 c -2.232,-2.232 -4.89601,-3.96 -7.992,-5.112 -3.096,-1.152 -6.48,-1.8 -10.152,-1.8 -5.04,0 -9.57601,1.152 -13.60801,3.312 -4.03199,2.232 -7.12799,5.256 -9.43199,9.144 -2.30401,3.888 -3.384,8.28 -3.384,13.104 0,4.896 1.07999,9.216 3.384,13.104 2.304,3.888 5.4,6.984 9.43199,9.144 4.032,2.232 8.49601,3.312 13.536,3.312 3.45601,0 6.76801,-0.504 9.93601,-1.656 3.16799,-1.08 5.832,-2.664 8.06399,-4.824 v -18.864 z" stroke-width="0" stroke-linejoin="miter" stroke-miterlimit="2" fill="#4e8b8a" stroke="#4e8b8a" transform="translate(0 303.172) translate(636.3200031499999 15.9908) scale(1.67) translate(-546.19438 50.76)"></path>
        <path id="path272665" style="font-style:normal;font-weight:300;font-size:72px;line-height:1;font-family:'Montserrat Light Alt1';font-variant-ligatures:none;text-align:center;text-anchor:middle" d="m 614.69787,-2.952 c 3.96,2.232 8.42401,3.312 13.392,3.312 4.896,0 9.36001,-1.08 13.392,-3.312 3.96,-2.16 7.056,-5.256 9.36,-9.144 2.30401,-3.888 3.456,-8.208 3.456,-13.104 0,-4.824 -1.15199,-9.216 -3.456,-13.104 -2.304,-3.888 -5.4,-6.912 -9.36,-9.144 -4.03199,-2.16 -8.496,-3.312 -13.392,-3.312 -4.96799,0 -9.432,1.152 -13.392,3.384 -4.03199,2.232 -7.12799,5.256 -9.43199,9.144 -2.30401,3.888 -3.384,8.28 -3.384,13.032 0,4.824 1.07999,9.144 3.384,13.032 2.304,3.888 5.4,6.984 9.43199,9.216 z m 24.84,-2.952 c -3.456,1.944 -7.27199,2.88 -11.448,2.88 -4.248,0 -8.06399,-0.936 -11.51999,-2.88 -3.45601,-1.872 -6.12,-4.536 -8.06401,-7.92 -2.016,-3.384 -2.952,-7.2 -2.952,-11.376 0,-4.176 0.936,-7.92 2.952,-11.304 1.94401,-3.384 4.608,-6.048 8.06401,-7.992 3.456,-1.872 7.27199,-2.88 11.51999,-2.88 4.17601,0 7.992,1.008 11.448,2.88 3.384,1.944 6.048,4.608 8.06401,7.992 1.944,3.384 2.95199,7.128 2.95199,11.304 0,4.176 -1.00799,7.992 -2.95199,11.376 -2.01601,3.384 -4.68001,6.048 -8.06401,7.92 z" stroke-width="0" stroke-linejoin="miter" stroke-miterlimit="2" fill="#4e8b8a" stroke="#4e8b8a" transform="translate(0 303.172) translate(729.3181281499999 15.9908) scale(1.67) translate(-601.88188 50.76)"></path>
      </g>
      
    </g>
  </g>
</svg>