<?xml version="1.0" standalone="no"?>
<!DOCTYPE svg PUBLIC "-//W3C//DTD SVG 20010904//EN"
 "http://www.w3.org/TR/2001/REC-SVG-20010904/DTD/svg10.dtd">
<svg version="1.0" xmlns="http://www.w3.org/2000/svg"
 width="1024.000000pt" height="1024.000000pt" viewBox="0 0 1024.000000 1024.000000"
 preserveAspectRatio="xMidYMid meet">

<g transform="translate(0.000000,1024.000000) scale(0.100000,-0.100000)"
fill="#000000" stroke="none">
<path d="M2646 9889 c-158 -25 -346 -130 -448 -251 -123 -145 -183 -280 -224
-494 -23 -124 -49 -169 -146 -255 -107 -94 -144 -139 -182 -219 -73 -155 -32
-375 86 -460 60 -44 75 -40 83 18 4 26 10 58 15 72 l8 25 1 -26 c2 -48 32
-118 72 -163 71 -80 184 -119 386 -132 71 -5 100 -10 97 -19 -3 -8 -49 -11
-162 -9 -285 4 -512 -27 -642 -87 -152 -70 -236 -212 -299 -504 -26 -119 -51
-338 -51 -452 0 -76 -3 -86 -37 -145 -74 -127 -123 -268 -123 -357 0 -59 28
-133 72 -191 40 -52 40 -53 33 -120 -18 -179 68 -342 222 -423 72 -37 190 -77
229 -77 l24 0 2 -167 3 -168 30 0 30 0 3 195 3 195 27 22 c15 12 30 22 35 23
4 0 7 -99 7 -220 l0 -220 389 0 c215 0 392 4 395 8 3 5 6 94 6 199 1 104 4
217 7 251 6 60 7 62 34 62 l29 0 0 -260 0 -260 449 0 c410 0 449 1 455 17 7
18 -5 142 -33 331 -15 102 -15 124 -4 133 21 18 16 114 -18 344 -27 188 -51
434 -43 444 1 1 18 -28 37 -66 67 -133 199 -287 281 -330 41 -21 117 -43 152
-43 97 0 219 77 303 193 94 128 196 355 307 677 48 141 56 157 87 177 44 28
253 249 324 344 62 82 83 124 83 166 0 34 -8 46 -37 62 -18 9 -23 20 -23 52 0
33 -6 47 -35 76 -19 19 -35 43 -35 52 0 23 -28 61 -53 70 -12 4 -36 5 -54 1
-27 -6 -33 -4 -38 11 -4 11 -20 26 -36 35 -56 28 -83 13 -222 -126 -124 -125
-128 -128 -137 -104 -6 14 -10 29 -10 34 0 5 -14 25 -31 45 -22 25 -39 35 -61
35 -72 0 -93 -38 -102 -185 -3 -60 -9 -155 -12 -210 -4 -74 -2 -112 10 -149
l15 -48 -48 -102 c-27 -55 -78 -152 -114 -214 l-66 -113 -17 26 c-15 24 -15
27 0 44 9 9 16 27 16 38 0 25 -79 202 -161 363 -107 209 -202 311 -376 402
-80 43 -264 106 -356 123 -61 12 -48 35 21 35 65 0 154 21 221 52 34 15 68 21
131 22 101 1 155 22 224 86 49 45 81 103 96 171 8 38 9 32 6 -39 -3 -99 5
-108 64 -67 85 59 138 192 125 317 -11 120 -39 183 -144 328 -82 114 -84 121
-92 330 -7 202 -14 231 -81 365 -71 140 -183 257 -291 305 -61 27 -154 50
-203 50 -23 0 -61 7 -85 16 -100 35 -291 51 -403 33z m494 -363 c0 -53 -20
-147 -43 -200 -15 -36 -18 -52 -10 -65 15 -23 59 -17 100 15 44 33 69 74 89
144 9 30 18 57 20 59 6 7 77 -50 122 -98 125 -132 171 -321 159 -645 -10 -261
-65 -416 -193 -542 -172 -170 -395 -209 -619 -109 -153 68 -299 217 -367 373
-31 71 -44 82 -79 70 -68 -24 -157 30 -207 126 -33 64 -38 175 -9 219 23 36
74 67 110 67 29 0 87 -25 87 -38 0 -18 53 -62 74 -62 57 0 119 125 133 269 l6
66 61 29 c39 19 86 55 133 102 52 52 69 64 62 45 -6 -14 -26 -43 -46 -63 -46
-48 -40 -68 21 -68 122 0 273 113 342 256 19 39 34 77 34 83 0 7 5 9 10 6 6
-3 10 -21 10 -39z m-394 -1553 c39 -19 100 -39 135 -45 l64 -10 -3 -89 c-4
-83 -3 -89 16 -89 24 0 39 17 44 49 3 27 16 35 37 22 17 -11 9 -46 -21 -91
-51 -75 -190 -108 -318 -76 -126 32 -258 108 -309 177 -17 23 -21 34 -12 37 7
2 29 18 48 35 51 45 69 86 98 220 l6 28 72 -67 c45 -42 98 -79 143 -101z
m1964 -28 c0 -8 -39 -58 -87 -110 -104 -114 -113 -129 -89 -153 17 -16 23 -12
110 80 100 106 150 148 178 148 40 0 14 -41 -92 -145 -77 -76 -110 -116 -110
-132 0 -28 24 -30 60 -6 14 9 64 54 112 101 48 46 93 82 100 80 7 -3 14 -18
16 -34 3 -27 -10 -42 -103 -133 -106 -102 -123 -133 -80 -139 19 -3 43 15 191
142 26 23 37 27 46 18 16 -16 -35 -90 -148 -217 -108 -122 -186 -198 -241
-236 -44 -31 -45 -33 -109 -224 -123 -374 -260 -641 -373 -730 -94 -74 -162
-83 -259 -35 -104 52 -239 220 -298 372 -25 62 -26 71 -14 113 l13 46 148 75
c82 41 154 74 161 74 7 0 26 -18 41 -40 l28 -39 -24 -38 c-36 -56 -87 -160
-87 -176 0 -20 20 -35 39 -30 10 2 54 68 101 151 46 81 112 197 148 257 36 61
87 159 113 219 l48 109 -20 61 c-17 49 -20 74 -15 126 4 36 10 122 14 192 7
128 16 156 46 145 21 -8 36 -71 36 -154 0 -72 0 -73 43 -116 41 -40 67 -92 81
-159 11 -52 56 -27 56 30 0 61 -23 115 -68 160 -24 24 -42 47 -40 52 5 15 187
216 238 264 49 46 90 60 90 31z m-2970 -123 c0 -5 -25 -26 -55 -47 -71 -48
-112 -96 -141 -162 -13 -29 -28 -53 -33 -53 -10 0 4 82 20 111 25 47 88 104
144 131 68 32 65 31 65 20z m1499 -146 c78 -100 158 -317 191 -511 18 -110 14
-294 -11 -425 -38 -207 -36 -334 12 -637 10 -68 23 -163 27 -212 l8 -90 -71
-25 c-141 -50 -372 -85 -552 -86 l-113 0 -1 93 c0 134 -9 218 -26 254 -20 43
-69 64 -165 70 -79 6 -79 6 -98 42 -24 46 -94 113 -145 139 -56 27 -138 35
-212 19 l-63 -14 48 51 c100 106 210 291 279 471 126 323 136 583 37 908 -4
12 15 3 61 -29 36 -25 105 -62 153 -82 75 -30 101 -36 188 -40 122 -5 186 12
247 67 42 38 76 100 77 139 0 22 2 22 44 -13 25 -20 63 -60 85 -89z m-1169 84
c29 -29 56 -88 80 -176 31 -110 39 -379 16 -520 -25 -157 -100 -358 -175 -468
l-20 -30 5 60 c17 194 25 232 68 346 50 131 61 176 52 214 -13 50 -36 20 -95
-126 -79 -195 -89 -218 -100 -224 -5 -3 -64 30 -132 75 -139 90 -221 132 -294
150 -27 6 -51 13 -53 14 -8 7 114 232 178 330 95 144 145 202 228 263 66 49
184 112 210 112 6 0 21 -9 32 -20z m1502 -197 c46 -52 87 -112 136 -203 43
-79 165 -350 160 -355 -4 -4 -307 -155 -311 -155 -2 0 3 37 9 83 34 219 -1
542 -72 679 l-16 31 29 -21 c17 -12 45 -38 65 -59z m-2023 -613 c63 -31 235
-136 269 -166 9 -7 -165 -244 -178 -244 -4 0 -33 12 -64 26 -65 30 -100 29
-104 -3 -3 -18 8 -28 65 -57 37 -19 139 -81 226 -139 l159 -104 -54 -31 c-99
-55 -176 -172 -115 -172 14 0 39 17 66 46 77 80 218 136 346 137 61 0 80 -4
117 -26 86 -50 137 -162 129 -284 -1 -24 -47 -83 -63 -83 -7 0 -9 18 -5 51 10
86 -53 249 -97 249 -6 0 -17 -4 -25 -9 -11 -7 -8 -17 12 -52 57 -98 58 -242 2
-267 -24 -11 -25 -11 -25 29 0 79 -52 219 -89 238 -37 20 -40 -7 -10 -90 21
-57 29 -98 29 -145 0 -60 -2 -65 -26 -74 -14 -6 -27 -10 -29 -10 -1 0 -6 21
-10 48 -7 49 -48 161 -73 200 -16 25 -40 29 -48 8 -3 -7 7 -42 21 -76 15 -37
29 -91 32 -132 l6 -70 -29 4 c-26 3 -31 10 -54 79 -29 85 -69 145 -107 160
-41 15 -85 10 -110 -12 l-22 -22 -103 58 c-228 127 -345 217 -396 305 -38 64
-37 176 1 270 53 127 228 400 256 400 9 0 54 -18 100 -40z m981 -1165 c0 -100
19 -92 -169 -65 -128 19 -173 30 -120 30 14 0 33 6 44 14 11 7 40 17 64 21 31
5 56 19 85 46 27 25 51 39 69 39 l27 0 0 -85z"/>
<path d="M3246 9197 c-14 -10 -17 -21 -12 -40 6 -25 10 -27 62 -27 62 0 110
-17 138 -49 22 -25 51 -28 60 -5 9 24 -21 72 -65 101 -50 33 -151 44 -183 20z"/>
<path d="M2734 9176 c-53 -24 -84 -57 -84 -88 0 -29 14 -28 81 4 54 26 76 32
139 32 69 1 75 3 78 23 8 55 -120 73 -214 29z"/>
<path d="M2791 8961 c-37 -37 -34 -169 5 -198 46 -34 94 -6 101 59 14 118 -47
198 -106 139z"/>
<path d="M3284 8963 c-14 -14 -16 -30 -11 -97 9 -114 47 -147 104 -90 24 24
25 31 21 93 -7 88 -19 111 -63 111 -18 0 -41 -8 -51 -17z"/>
<path d="M3124 8846 c-23 -18 -14 -49 35 -115 50 -66 46 -86 -16 -77 -51 7
-67 -12 -38 -43 25 -28 61 -34 100 -15 74 35 77 72 10 177 -52 83 -64 92 -91
73z"/>
<path d="M2843 8514 c-104 -53 -23 -271 116 -313 118 -35 227 11 291 123 59
102 37 129 -140 170 -150 35 -227 41 -267 20z m283 -247 c14 -14 -6 -20 -57
-19 -66 1 -109 11 -109 24 0 12 154 8 166 -5z"/>

</g>
</svg>