<?xml version="1.0" standalone="no"?>
<!DOCTYPE svg PUBLIC "-//W3C//DTD SVG 20010904//EN"
 "http://www.w3.org/TR/2001/REC-SVG-20010904/DTD/svg10.dtd">
<svg version="1.0" xmlns="http://www.w3.org/2000/svg"
 width="1024.000000pt" height="1024.000000pt" viewBox="0 0 1024.000000 1024.000000"
 preserveAspectRatio="xMidYMid meet">

<g transform="translate(0.000000,1024.000000) scale(0.100000,-0.100000)"
fill="#000000" stroke="none">
<path d="M7121 4950 c-100 -27 -203 -78 -299 -149 -173 -128 -286 -319 -351
-595 -11 -47 -27 -101 -35 -120 -8 -19 -65 -85 -128 -148 -126 -125 -167 -190
-194 -304 -18 -79 -14 -160 13 -244 22 -70 100 -152 162 -171 50 -15 70 -4 52
29 -6 11 -11 54 -10 94 l1 73 19 -74 c22 -85 42 -120 101 -178 77 -75 194
-114 386 -129 50 -3 92 -9 92 -13 0 -4 -7 -16 -15 -28 -14 -19 -26 -21 -217
-26 -523 -14 -690 -114 -797 -477 -36 -119 -26 -100 -112 -202 -38 -46 -69
-92 -69 -104 0 -11 -34 -66 -76 -120 -195 -253 -254 -369 -255 -499 -1 -81 15
-132 62 -211 68 -112 311 -348 534 -516 55 -42 116 -93 135 -113 40 -43 121
-85 164 -85 26 0 28 -2 21 -27 -15 -59 -53 -288 -49 -295 3 -5 426 -8 941 -8
l936 0 -7 113 c-4 61 -13 155 -19 207 -12 88 -11 96 6 110 17 14 16 28 -17
330 -47 423 -47 446 -5 559 19 50 37 91 41 91 3 0 20 -24 37 -52 16 -29 69
-101 116 -160 86 -107 86 -107 76 -145 -24 -85 -7 -159 46 -204 l29 -25 -12
-54 c-17 -73 -17 -96 1 -113 12 -13 15 -68 17 -334 l3 -318 30 0 30 0 5 310 5
310 35 0 35 0 5 -310 5 -310 30 0 30 0 3 316 2 317 28 5 c18 4 34 -1 48 -14
16 -15 36 -20 80 -20 106 -1 178 1 219 4 22 3 50 5 62 6 11 0 44 19 72 41 77
61 81 58 82 -62 4 -450 7 -577 13 -587 11 -17 53 -13 60 5 3 9 6 148 6 310 l0
294 30 0 30 0 2 -307 3 -308 30 0 30 0 0 317 c-1 177 3 318 8 318 5 0 7 51 5
113 -4 153 -21 176 -151 197 -68 11 -77 15 -77 39 0 26 -73 105 -115 125 -20
10 -77 25 -127 35 -90 17 -90 17 -103 53 -11 34 -63 131 -214 403 -54 98 -60
114 -55 150 5 35 0 50 -45 123 -200 329 -282 440 -379 518 -78 63 -261 150
-363 174 -46 11 -129 30 -184 42 -75 17 -101 27 -103 40 -3 16 8 17 140 11
114 -4 156 -2 205 10 193 50 312 170 353 357 l17 75 7 -57 c4 -31 4 -84 0
-117 -6 -60 -6 -61 18 -61 50 0 122 73 165 167 24 51 27 70 27 158 0 87 -4
110 -30 176 -17 42 -60 120 -97 175 -40 60 -70 117 -76 144 -5 25 -9 108 -9
185 1 126 -1 148 -25 220 -57 172 -173 326 -307 405 -75 45 -174 80 -224 80
-19 0 -57 11 -85 25 -109 55 -366 72 -510 35z m683 -375 c126 -88 214 -213
250 -352 35 -135 48 -509 22 -643 -73 -379 -396 -591 -730 -479 -120 41 -177
77 -277 178 -83 84 -103 111 -144 194 l-47 97 -56 -6 c-51 -5 -62 -3 -105 25
-107 69 -156 215 -106 319 49 100 146 107 215 17 14 -19 34 -35 43 -35 23 0
84 65 109 115 11 22 30 81 43 131 l23 92 58 6 c70 8 192 68 260 126 26 22 65
68 89 103 41 62 42 62 35 24 -4 -21 -19 -65 -33 -97 -14 -33 -23 -66 -19 -75
21 -56 217 68 265 168 11 23 23 63 26 90 4 26 9 47 11 47 2 0 32 -20 68 -45z
m-703 -1452 c92 -89 203 -144 327 -162 l47 -6 -3 -70 c-4 -84 11 -115 46 -96
15 8 22 21 22 41 0 23 5 30 19 30 53 0 63 -26 34 -87 -32 -69 -136 -114 -263
-114 -128 0 -282 56 -388 140 l-52 42 53 52 c58 58 84 118 94 220 3 31 8 57
10 57 3 0 27 -21 54 -47z m-751 -288 c0 -2 -16 -13 -34 -22 -19 -10 -60 -42
-90 -72 -31 -29 -56 -49 -56 -43 0 23 76 106 114 123 40 18 66 24 66 14z m510
-47 c48 -55 173 -129 275 -164 115 -39 257 -45 348 -15 112 38 197 122 197
196 0 14 5 25 10 25 20 0 100 -83 129 -134 34 -59 99 -220 130 -321 58 -188
78 -476 46 -684 -27 -185 -24 -269 34 -740 11 -91 19 -165 18 -166 -13 -8
-199 -58 -257 -70 -250 -52 -704 -61 -963 -19 l-37 6 25 20 c16 12 25 29 25
47 0 23 7 30 50 48 55 23 71 55 52 105 -9 25 -7 32 14 53 33 33 32 84 -1 123
-24 29 -25 31 -8 60 14 25 15 33 4 61 -8 17 -28 44 -47 60 -62 55 -207 66
-306 23 l-47 -21 49 67 c110 152 220 398 277 622 30 117 35 156 40 295 7 211
-20 363 -92 507 -21 41 -23 58 -7 58 2 0 21 -19 42 -42z m-279 -81 c50 -109
61 -168 66 -359 6 -204 -7 -307 -62 -498 -34 -117 -102 -290 -114 -290 -3 0
-8 95 -9 210 l-4 210 42 47 c23 27 49 61 57 76 16 32 14 88 -3 94 -7 2 -41
-34 -78 -81 -63 -80 -257 -271 -276 -271 -5 0 -75 61 -157 135 -81 75 -167
151 -190 169 l-42 34 32 45 c18 25 116 131 218 236 195 199 234 230 375 291
94 41 105 38 145 -48z m1573 -54 c76 -59 126 -125 271 -357 l124 -198 -36 -45
c-43 -52 -104 -95 -257 -182 l-108 -61 7 37 c31 160 33 346 5 505 -22 132 -43
195 -96 298 -21 41 -41 79 -43 84 -6 14 74 -34 133 -81z m-2263 -635 c56 -51
127 -116 158 -145 l56 -51 -90 -92 c-111 -112 -115 -115 -154 -92 -23 13 -35
14 -48 6 -30 -19 -25 -31 32 -76 31 -23 104 -101 163 -173 59 -71 137 -164
175 -207 44 -51 67 -85 67 -102 0 -55 49 -45 173 36 50 34 126 77 167 97 66
32 84 36 152 36 62 0 82 -4 105 -21 39 -29 38 -60 -2 -56 -77 8 -214 4 -251
-6 -55 -16 -73 -37 -51 -59 14 -14 24 -15 91 -3 41 7 97 11 124 8 61 -6 139
-43 148 -70 7 -24 -13 -41 -36 -31 -51 21 -126 33 -207 33 -104 0 -146 -11
-141 -38 3 -14 19 -18 113 -23 123 -6 180 -19 219 -50 68 -53 -4 -89 -97 -48
-43 19 -70 23 -161 23 -76 1 -110 -3 -113 -11 -7 -19 31 -33 119 -44 88 -11
145 -32 162 -62 18 -30 -10 -36 -138 -30 -109 5 -126 3 -176 -17 -89 -36 -112
-41 -164 -34 -41 5 -59 15 -110 63 -34 31 -118 99 -186 151 -72 54 -193 162
-286 255 -138 138 -166 170 -198 235 -81 165 -39 292 194 593 41 53 78 96 83
97 4 0 53 -42 108 -92z m2705 -90 c66 -114 222 -403 229 -425 6 -22 4 -23 -43
-23 -70 0 -136 -26 -173 -68 -36 -41 -68 -106 -69 -139 0 -13 -10 -27 -22 -34
-13 -7 -27 -18 -31 -25 -21 -35 -63 1 -72 61 -12 79 36 166 131 235 59 44 70
70 29 70 -35 0 -83 -25 -126 -67 l-36 -34 -65 69 c-36 39 -84 100 -106 138
l-41 68 108 61 c113 64 193 119 225 154 11 12 20 21 22 21 2 0 20 -28 40 -62z
m428 -543 c71 -18 133 -56 146 -89 4 -13 11 -59 15 -102 6 -79 6 -79 -30 -127
-32 -43 -78 -77 -89 -66 -3 2 5 31 16 64 34 102 12 230 -36 212 -13 -5 -16
-22 -16 -81 0 -121 -45 -216 -102 -216 -17 0 -18 2 -2 31 41 80 19 270 -33
277 -26 4 -27 -2 -13 -79 21 -107 -15 -210 -74 -217 -40 -5 -51 10 -33 45 30
58 -3 263 -43 263 -5 0 -17 -11 -25 -24 -9 -13 -24 -23 -33 -21 -9 2 -27 4
-39 4 -47 2 -9 87 55 124 63 37 196 37 336 2z"/>
<path d="M7787 4245 c-20 -12 -27 -23 -25 -38 3 -20 8 -22 52 -19 61 3 120
-12 169 -44 41 -27 57 -25 57 9 -1 53 -72 98 -165 104 -42 2 -68 -1 -88 -12z"/>
<path d="M7275 4219 c-68 -28 -111 -63 -118 -94 -7 -42 18 -42 98 0 51 26 86
37 114 37 34 -1 45 4 58 25 16 24 16 26 -2 39 -27 20 -91 16 -150 -7z"/>
<path d="M7803 3955 c-23 -23 -33 -42 -31 -57 4 -30 39 -35 63 -8 26 28 51 25
72 -10 19 -33 39 -35 57 -8 16 26 -4 69 -43 95 -48 32 -77 29 -118 -12z"/>
<path d="M7301 3953 c-34 -17 -63 -66 -54 -90 9 -22 50 -15 67 12 22 33 59 33
80 -1 26 -39 60 -30 64 17 3 30 -2 41 -24 58 -32 25 -86 27 -133 4z"/>
<path d="M7633 3854 c-3 -9 13 -43 42 -84 56 -81 52 -100 -20 -100 -55 0 -77
-22 -43 -43 56 -36 120 -28 158 20 27 35 25 71 -6 118 -60 90 -116 128 -131
89z"/>
<path d="M7337 3514 c-21 -21 15 -104 62 -142 66 -54 206 -70 286 -33 49 23
94 69 97 100 l3 24 -125 2 c-98 2 -140 7 -195 24 -90 29 -118 34 -128 25z"/>
</g>
</svg>
