<?xml version="1.0" standalone="no"?>
<!DOCTYPE svg PUBLIC "-//W3C//DTD SVG 20010904//EN"
 "http://www.w3.org/TR/2001/REC-SVG-20010904/DTD/svg10.dtd">
<svg version="1.0" xmlns="http://www.w3.org/2000/svg"
 width="1024.000000pt" height="1024.000000pt" viewBox="0 0 1024.000000 1024.000000"
 preserveAspectRatio="xMidYMid meet">

<g transform="translate(0.000000,1024.000000) scale(0.100000,-0.100000)"
fill="#000000" stroke="none">





<path d="M7172 9889 c-252 -42 -511 -266 -612 -531 -17 -45 -46 -143 -65 -216
-39 -153 -45 -162 -180 -297 -97 -98 -144 -172 -170 -270 -38 -147 -2 -299 91
-387 36 -33 123 -73 135 -61 5 5 2 30 -6 57 -16 52 -19 157 -6 191 5 13 10 1
14 -43 12 -117 86 -222 194 -276 74 -37 133 -47 265 -47 l118 1 -11 -23 c-10
-22 -14 -22 -192 -23 -473 -3 -705 -95 -819 -325 -85 -171 -120 -381 -189
-1141 -17 -187 -7 -457 19 -530 70 -194 223 -304 493 -354 62 -11 89 -20 86
-29 -13 -32 -49 -274 -44 -289 6 -15 80 -16 889 -14 l883 3 3 45 c1 25 -6 122
-16 215 -17 165 -17 171 1 188 15 15 18 28 13 65 -3 26 -8 79 -12 117 l-6 70
23 -22 c13 -12 49 -33 79 -47 48 -23 68 -26 163 -26 l107 0 0 -132 c1 -73 1
-204 0 -291 -1 -169 4 -187 45 -187 33 0 35 21 31 285 -2 127 -1 245 2 263 4
29 8 32 38 32 l34 0 0 -67 c0 -38 2 -167 3 -288 l2 -220 30 0 30 0 3 292 2
292 55 6 c32 4 67 3 83 -3 33 -13 217 -9 252 5 14 6 31 8 38 6 25 -9 106 19
139 48 19 16 42 29 53 29 19 0 20 -10 22 -337 l3 -338 33 -3 32 -3 0 290 c0
280 1 291 19 291 11 0 26 3 35 6 14 5 16 -24 15 -281 0 -173 3 -291 9 -297 5
-5 20 -8 33 -6 l24 3 1 302 c1 166 6 308 10 315 14 22 9 190 -7 222 -19 40
-63 64 -144 79 -65 12 -67 13 -80 51 -16 46 -57 91 -106 116 -100 52 -371 72
-459 35 -33 -14 -69 -19 -132 -20 -47 0 -89 3 -93 7 -9 8 -28 108 -50 258 -12
85 -14 115 -5 118 6 2 23 14 37 26 l25 22 -37 139 c-52 199 -130 428 -173 509
-72 137 -199 244 -387 325 -55 23 -125 53 -155 66 -30 13 -75 27 -100 31 -72
11 -81 21 -25 29 28 3 70 13 95 20 25 8 86 17 135 19 216 10 373 130 426 325
17 64 18 65 18 24 1 -24 -4 -74 -11 -112 -7 -39 -9 -73 -5 -77 14 -14 97 29
132 68 56 61 78 119 83 219 7 133 -28 232 -134 378 -30 40 -59 91 -64 112 -6
22 -10 112 -9 202 1 137 -2 174 -19 240 -72 266 -282 465 -511 483 -36 3 -95
17 -131 30 -133 49 -301 66 -438 43z m589 -399 c19 -14 68 -59 109 -100 130
-130 180 -260 200 -518 25 -321 -36 -536 -194 -696 -194 -195 -450 -219 -707
-66 -133 79 -229 191 -289 337 l-27 68 -39 -3 c-110 -7 -206 53 -244 154 -26
70 -25 109 3 164 26 53 77 90 124 90 26 0 44 -10 82 -45 26 -25 54 -45 62 -45
59 0 124 134 147 300 l7 54 55 1 c30 1 79 9 107 19 73 24 188 102 251 169 28
31 52 52 52 48 0 -10 -44 -76 -76 -114 -13 -16 -24 -38 -24 -49 0 -18 4 -20
41 -14 56 9 121 41 172 86 47 41 107 144 128 220 l12 45 8 -40 c5 -29 16 -47
40 -65z m-658 -1446 c84 -76 183 -122 293 -137 l86 -12 -4 -80 c-6 -92 -3
-105 22 -105 24 0 40 21 47 64 7 43 14 50 37 33 27 -20 10 -74 -38 -122 -130
-130 -449 -75 -606 103 -37 41 -39 47 -23 55 64 34 113 122 113 205 0 28 3 52
6 52 3 0 34 -25 67 -56z m-243 -263 c50 -78 150 -152 269 -199 59 -23 80 -26
201 -26 127 -1 138 1 190 26 30 15 65 35 77 46 31 27 63 83 63 110 0 32 12 28
62 -26 54 -58 94 -139 148 -298 83 -252 110 -512 76 -759 -31 -230 -33 -177
29 -744 8 -74 13 -136 12 -137 -1 -1 -65 -21 -142 -43 -216 -63 -413 -85 -685
-78 -232 7 -371 24 -508 63 -94 26 -191 62 -206 75 -9 8 5 69 51 214 l25 80
76 55 c43 30 161 138 263 240 169 168 194 189 270 227 144 72 428 313 470 399
16 33 19 54 15 82 -8 46 -8 65 0 120 6 38 3 45 -25 71 -17 16 -31 39 -31 50 0
33 -44 71 -80 71 -17 0 -40 9 -52 20 -26 24 -76 34 -124 26 -69 -13 -280 -136
-364 -212 l-37 -34 -6 158 c-6 177 -19 240 -75 371 -22 49 -37 93 -34 96 16
16 43 0 72 -44z m-597 8 c-73 -35 -138 -103 -155 -163 -6 -23 -18 -50 -26 -61
-13 -18 -14 -15 -8 29 15 120 118 220 231 225 11 0 -8 -13 -42 -30z m266 -75
c24 -30 61 -141 87 -259 21 -98 23 -411 2 -549 -11 -74 -17 -91 -37 -104 l-23
-16 8 80 c5 43 9 138 9 211 0 111 -3 135 -17 149 -16 16 -18 16 -26 -7 -6 -13
-15 -87 -22 -164 -6 -77 -17 -176 -23 -220 -14 -97 -20 -99 -130 -56 -112 45
-221 72 -315 78 -45 3 -84 9 -86 12 -7 12 33 150 79 271 87 233 178 403 256
476 55 51 170 118 211 123 4 1 16 -11 27 -25z m1591 -164 c30 -30 70 -83 87
-116 45 -84 183 -517 183 -573 0 -15 -42 -35 -174 -80 -65 -23 -119 -41 -121
-41 -2 0 1 17 7 38 5 20 12 123 15 227 8 266 -18 417 -98 579 -16 32 -29 60
-29 62 0 12 84 -50 130 -96z m-762 -186 c-2 -9 -46 -41 -98 -71 -107 -62 -140
-88 -140 -114 0 -33 19 -30 97 15 43 24 114 65 158 90 87 50 118 58 113 26 -2
-12 -54 -55 -137 -112 -142 -98 -164 -119 -144 -139 17 -17 41 -5 189 92 126
81 154 93 154 60 0 -27 -49 -71 -164 -147 -110 -72 -127 -89 -119 -110 9 -24
49 -16 102 21 28 19 74 51 102 70 59 41 79 44 79 13 0 -16 -28 -50 -88 -108
-127 -122 -263 -222 -372 -274 -88 -41 -102 -53 -179 -138 -187 -208 -399
-386 -547 -459 -195 -97 -366 -57 -424 98 -36 97 -28 294 21 503 28 119 24
115 106 102 87 -15 233 -56 297 -85 l49 -22 -157 -105 c-87 -57 -162 -112
-167 -121 -13 -26 -11 -59 4 -59 19 0 144 77 317 195 230 156 241 164 326 242
82 73 110 116 135 202 26 87 159 203 353 307 85 46 140 57 134 28z m1001 -771
c12 -82 25 -159 28 -173 4 -24 1 -26 -57 -37 -71 -13 -110 -36 -110 -63 0 -28
31 -33 98 -15 63 16 134 19 218 9 l52 -6 -14 -27 c-8 -14 -14 -34 -14 -44 0
-27 -19 -57 -35 -57 -19 0 -73 -47 -89 -79 -7 -14 -17 -52 -21 -85 l-7 -58
-101 4 c-116 5 -144 16 -208 81 -64 65 -67 74 -79 197 -5 63 -12 139 -15 168
-4 43 1 67 26 130 17 42 34 86 38 96 5 14 43 32 132 62 68 24 127 43 130 43 3
1 16 -65 28 -146z m653 -248 c40 -9 93 -26 118 -38 38 -18 48 -30 63 -71 10
-27 20 -74 23 -105 5 -47 1 -63 -19 -100 -20 -37 -83 -89 -94 -78 -1 2 4 36
12 76 16 74 12 164 -8 189 -5 6 -17 12 -27 12 -15 0 -18 -13 -23 -97 -7 -134
-41 -203 -99 -203 -18 0 -18 1 -1 33 14 24 18 55 18 127 -1 111 -16 155 -55
155 -21 0 -24 -4 -22 -25 22 -154 8 -242 -42 -275 -32 -22 -62 -16 -57 10 3
11 5 73 5 137 1 108 -1 119 -21 139 -26 27 -53 19 -53 -16 0 -24 -3 -25 -55
-25 -30 0 -55 2 -55 4 0 16 34 94 48 109 50 57 191 74 344 42z m-283 -389
c-11 -10 -69 -16 -69 -8 0 12 64 31 69 19 1 -4 1 -10 0 -11z"/>
<path d="M7291 9127 c-114 -42 -140 -60 -128 -91 10 -26 63 -19 182 27 112 43
131 60 105 92 -18 21 -31 19 -159 -28z"/>
<path d="M7734 9156 c-17 -44 23 -73 159 -118 76 -25 102 -19 102 23 0 21 -8
27 -60 42 -33 10 -87 29 -120 43 -70 28 -74 29 -81 10z"/>
<path d="M7293 8926 c-22 -19 -27 -34 -31 -83 -6 -81 15 -123 61 -123 45 0 67
39 67 117 0 93 -45 134 -97 89z"/>
<path d="M7805 8930 c-39 -43 -36 -169 5 -202 22 -18 53 -17 74 3 15 13 25
117 15 151 -18 64 -60 85 -94 48z"/>
<path d="M7597 8763 c-14 -13 -6 -38 29 -89 20 -29 33 -57 30 -63 -4 -6 -25
-11 -47 -11 -48 0 -61 -22 -31 -52 26 -27 86 -26 122 0 49 37 34 111 -36 185
-34 36 -53 44 -67 30z"/>
<path d="M7474 8371 c-17 -4 -48 -16 -70 -27 -30 -15 -39 -25 -39 -44 0 -21 4
-25 30 -24 17 1 59 9 95 19 64 17 66 17 143 -5 56 -17 81 -20 89 -12 15 15
-14 57 -55 78 -36 19 -145 27 -193 15z"/>

</g>
</svg>
